<svg width="45" height="45" viewBox="0 0 45 45" fill="none" xmlns="http://www.w3.org/2000/svg">
<path d="M24.375 20.625H33.375C35.4752 20.625 36.5253 20.625 37.3275 21.0337C38.0331 21.3933 38.6067 21.9669 38.9663 22.6725C39.375 23.4747 39.375 24.5248 39.375 26.625V39.375M24.375 39.375V11.625C24.375 9.5248 24.375 8.4747 23.9663 7.67254C23.6067 6.96693 23.0331 6.39325 22.3275 6.03373C21.5253 5.625 20.4752 5.625 18.375 5.625H11.625C9.5248 5.625 8.4747 5.625 7.67254 6.03373C6.96693 6.39325 6.39325 6.96693 6.03373 7.67254C5.625 8.4747 5.625 9.5248 5.625 11.625V39.375M41.25 39.375H3.75M12.1875 13.125H17.8125M12.1875 20.625H17.8125M12.1875 28.125H17.8125" stroke="url(#paint0_linear_0_47)" stroke-width="5" stroke-linecap="round" stroke-linejoin="round"/>
<defs>
<linearGradient id="paint0_linear_0_47" x1="4.74609" y1="3.69141" x2="26.3426" y2="42.3358" gradientUnits="userSpaceOnUse">
<stop offset="0.567308" stop-color="#169AF9"/>
<stop offset="1" stop-color="#0C74EA"/>
</linearGradient>
</defs>
</svg>
